<svg width="27" height="27" viewBox="0 0 27 27" fill="none" xmlns="http://www.w3.org/2000/svg">
<path d="M13.5 2.4187C13.65 2.4187 13.7861 2.42808 13.9084 2.44683C14.0306 2.46558 14.157 2.50308 14.2875 2.55933L21.0375 5.09058C21.4688 5.25933 21.8205 5.5312 22.0928 5.9062C22.365 6.2812 22.5007 6.70308 22.5 7.17183V10.6875C22.5 11.0062 22.3924 11.2736 22.1771 11.4896C21.9619 11.7056 21.6945 11.8132 21.375 11.8125C21.0555 11.8117 20.7885 11.7037 20.574 11.4885C20.3595 11.2732 20.2515 11.0062 20.25 10.6875V7.19995L13.5 4.6687L6.75 7.19995V12.4875C6.75 13.425 6.88612 14.3625 7.15837 15.3C7.43062 16.2375 7.80562 17.1281 8.28337 17.9718C8.76113 18.8156 9.34238 19.5749 10.0271 20.25C10.7119 20.9249 11.457 21.4781 12.2625 21.9093C12.5437 22.0593 12.7455 22.2749 12.8678 22.5562C12.99 22.8374 12.9945 23.1187 12.8812 23.3999C12.75 23.6999 12.5392 23.9062 12.249 24.0187C11.9587 24.1312 11.6726 24.1124 11.3906 23.9624C9.27187 22.9124 7.59375 21.3281 6.35625 19.2093C5.11875 17.0906 4.5 14.85 4.5 12.4875V7.17183C4.5 6.70308 4.63612 6.2812 4.90837 5.9062C5.18062 5.5312 5.532 5.25933 5.9625 5.09058L12.7125 2.55933C12.8438 2.50308 12.975 2.46558 13.1062 2.44683C13.2375 2.42808 13.3687 2.4187 13.5 2.4187ZM19.125 24.7499C17.5688 24.7499 16.2424 24.2013 15.1459 23.1041C14.0494 22.0068 13.5007 20.6805 13.5 19.125C13.4993 17.5695 14.0479 16.2431 15.1459 15.1458C16.2439 14.0486 17.5702 13.5 19.125 13.5C20.6798 13.5 22.0065 14.0486 23.1052 15.1458C24.204 16.2431 24.7523 17.5695 24.75 19.125C24.7477 20.6805 24.1991 22.0072 23.1041 23.1052C22.0091 24.2032 20.6828 24.7514 19.125 24.7499ZM19.125 19.125C19.5938 19.125 19.9924 18.9611 20.3209 18.6333C20.6494 18.3056 20.8132 17.9069 20.8125 17.4375C20.8118 16.9679 20.6479 16.5697 20.3209 16.2427C19.9939 15.9157 19.5953 15.7515 19.125 15.75C18.6547 15.7485 18.2565 15.9127 17.9303 16.2427C17.604 16.5727 17.4397 16.971 17.4375 17.4375C17.4353 17.9039 17.5995 18.3026 17.9303 18.6333C18.261 18.9641 18.6593 19.128 19.125 19.125ZM19.125 22.5C19.5938 22.5 20.0344 22.4107 20.4469 22.2322C20.8594 22.0537 21.225 21.7961 21.5437 21.4593C21.6375 21.3468 21.675 21.2205 21.6562 21.0802C21.6375 20.94 21.5531 20.832 21.4031 20.7562C21.0469 20.5875 20.6768 20.4611 20.2928 20.3771C19.9088 20.2931 19.5195 20.2507 19.125 20.25C18.7305 20.2492 18.3416 20.2916 17.9584 20.3771C17.5751 20.4626 17.2046 20.589 16.8469 20.7562C16.6969 20.8312 16.6125 20.9392 16.5938 21.0802C16.575 21.2212 16.6125 21.3476 16.7063 21.4593C17.025 21.7968 17.3906 22.0548 17.8031 22.2333C18.2156 22.4118 18.6562 22.5007 19.125 22.5Z" fill="#ADB3BC"/>
</svg>
