<svg width="25" height="30" viewBox="0 0 25 30" fill="none" xmlns="http://www.w3.org/2000/svg">
<path d="M20.3625 15.9079C20.4046 20.4393 24.3377 21.9472 24.3813 21.9665C24.348 22.0728 23.7528 24.1154 22.3091 26.2253C21.0611 28.0493 19.7658 29.8667 17.7254 29.9044C15.7204 29.9413 15.0757 28.7154 12.7835 28.7154C10.4919 28.7154 9.77565 29.8667 7.87774 29.9413C5.90818 30.0159 4.40838 27.9688 3.14999 26.1514C0.578608 22.4339 -1.38646 15.6465 1.25213 11.065C2.56292 8.78973 4.90541 7.34896 7.44797 7.31202C9.38203 7.27513 11.2075 8.61319 12.3899 8.61319C13.5714 8.61319 15.7898 7.00405 18.1219 7.24037C19.0982 7.28101 21.8387 7.63475 23.5985 10.2106C23.4567 10.2985 20.3285 12.1195 20.3625 15.9079V15.9079ZM16.5944 4.7809C17.6401 3.51518 18.3439 1.75318 18.1519 0C16.6446 0.0605771 14.8221 1.00438 13.741 2.2694C12.7721 3.38964 11.9236 5.18265 12.1525 6.90113C13.8325 7.0311 15.5487 6.04742 16.5944 4.7809" fill="#292D32"/>
</svg>
