<svg width="25" height="26" viewBox="0 0 25 26" fill="none" xmlns="http://www.w3.org/2000/svg">
<path d="M24.9528 13.0339C24.9528 12.1947 24.8784 11.398 24.7509 10.6226H12.7474V15.4133H19.6202C19.3122 16.9855 18.4093 18.3133 17.0708 19.2162V22.403H21.1711C23.5718 20.1829 24.9528 16.9111 24.9528 13.0339Z" fill="#4285F4"/>
<path d="M12.7469 25.4941C16.1886 25.4941 19.0673 24.3469 21.1706 22.403L17.0703 19.2162C15.923 19.981 14.4678 20.4484 12.7469 20.4484C9.42203 20.4484 6.60705 18.2071 5.5979 15.1796H1.37012V18.462C3.46276 22.6261 7.76491 25.4941 12.7469 25.4941Z" fill="#34A853"/>
<path d="M5.5981 15.1797C5.33254 14.4149 5.19444 13.5969 5.19444 12.7471C5.19444 11.8973 5.34316 11.0794 5.5981 10.3145V7.03217H1.37031C0.49926 8.75302 0 10.6863 0 12.7471C0 14.8079 0.49926 16.7412 1.37031 18.4621L5.5981 15.1797Z" fill="#FBBC05"/>
<path d="M12.7469 5.04572C14.6271 5.04572 16.3055 5.6937 17.6333 6.95779L21.2662 3.32487C19.0673 1.26409 16.1886 0 12.7469 0C7.76491 0 3.46276 2.8681 1.37012 7.03215L5.5979 10.3145C6.60705 7.28709 9.42203 5.04572 12.7469 5.04572Z" fill="#EA4335"/>
</svg>
