<svg width="30" height="30" viewBox="0 0 30 30" fill="none" xmlns="http://www.w3.org/2000/svg">
<path d="M6.25 23.75V6.25V11.8438V11.25V23.75ZM8.75 16.25H15.6562C15.6979 15.7917 15.8021 15.3542 15.9688 14.9375C16.1354 14.5208 16.3437 14.125 16.5938 13.75H8.75V16.25ZM8.75 21.25H13.6562C14.0104 20.8333 14.4167 20.495 14.875 20.235C15.3333 19.975 15.8125 19.7612 16.3125 19.5938C16.2292 19.4688 16.1562 19.3333 16.0938 19.1875C16.0312 19.0417 15.9792 18.8958 15.9375 18.75H8.75V21.25ZM8.75 11.25H21.25V8.75H8.75V11.25ZM6.25 26.25C5.5625 26.25 4.97417 26.0054 4.485 25.5163C3.99583 25.0271 3.75083 24.4383 3.75 23.75V6.25C3.75 5.5625 3.995 4.97417 4.485 4.485C4.975 3.99583 5.56333 3.75083 6.25 3.75H23.75C24.4375 3.75 25.0263 3.995 25.5163 4.485C26.0063 4.975 26.2508 5.56333 26.25 6.25V14.3125C25.9583 13.7708 25.6042 13.2917 25.1875 12.875C24.7708 12.4583 24.2917 12.1146 23.75 11.8438V6.25H6.25V23.75H12.5625C12.5417 23.875 12.5258 24 12.515 24.125C12.5042 24.25 12.4992 24.375 12.5 24.5V26.25H6.25ZM21.25 20C20.375 20 19.6354 19.6979 19.0312 19.0938C18.4271 18.4896 18.125 17.75 18.125 16.875C18.125 16 18.4271 15.2604 19.0312 14.6562C19.6354 14.0521 20.375 13.75 21.25 13.75C22.125 13.75 22.8646 14.0521 23.4688 14.6562C24.0729 15.2604 24.375 16 24.375 16.875C24.375 17.75 24.0729 18.4896 23.4688 19.0938C22.8646 19.6979 22.125 20 21.25 20ZM15 26.25V24.5C15 24 15.1304 23.5367 15.3912 23.11C15.6521 22.6833 16.0217 22.3758 16.5 22.1875C17.25 21.875 18.0262 21.6408 18.8287 21.485C19.6312 21.3292 20.4383 21.2508 21.25 21.25C22.0617 21.2492 22.8692 21.3275 23.6725 21.485C24.4758 21.6425 25.2517 21.8767 26 22.1875C26.4792 22.375 26.8492 22.6825 27.11 23.11C27.3708 23.5375 27.5008 24.0008 27.5 24.5V26.25H15Z" fill="#ADB3BC"/>
</svg>
