<svg width="34" height="25" viewBox="0 0 34 25" fill="none" xmlns="http://www.w3.org/2000/svg">
<path d="M6.45878 20.7736C5.91716 20.511 5.49741 20.159 5.19952 19.7178C4.90163 19.2765 4.75269 18.7808 4.75269 18.2306V11.3539L0.853046 9.45559C0.555157 9.31233 0.33851 9.13324 0.203106 8.91834C0.0677021 8.70344 0 8.46467 0 8.20201C0 7.93936 0.0677021 7.70058 0.203106 7.48568C0.33851 7.27078 0.555157 7.0917 0.853046 6.94843L14.583 0.358188C14.8268 0.238799 15.0775 0.149019 15.3353 0.0888471C15.5931 0.0286753 15.8569 -0.000932723 16.1266 2.23856e-05C16.3964 0.000977494 16.6607 0.0310633 16.9196 0.09028C17.1785 0.149497 17.4287 0.238799 17.6702 0.358188L33.1469 7.80803C33.4178 7.92742 33.6279 8.10077 33.7774 8.32809C33.9269 8.5554 34.0011 8.79991 34 9.06161V18.2306C34 18.6366 33.844 18.9771 33.532 19.2521C33.2201 19.5272 32.8344 19.6643 32.3751 19.6633C31.9158 19.6624 31.5302 19.5248 31.2182 19.2507C30.9063 18.9766 30.7503 18.6366 30.7503 18.2306V9.77794L27.5006 11.3539V18.2306C27.5006 18.7798 27.3516 19.2755 27.0538 19.7178C26.7559 20.16 26.3361 20.5119 25.7945 20.7736L17.6702 24.6418C17.4265 24.7612 17.1763 24.851 16.9196 24.9112C16.6628 24.9713 16.3985 25.0009 16.1266 25C15.8547 24.999 15.5904 24.9694 15.3337 24.9112C15.077 24.8529 14.8268 24.7631 14.583 24.6418L6.45878 20.7736ZM16.1266 13.5029L27.2569 8.20201L16.1266 2.90116L4.99641 8.20201L16.1266 13.5029ZM16.1266 22.1347L24.2509 18.2665V12.8582L17.7109 16.0458C17.4671 16.1652 17.2099 16.255 16.9391 16.3152C16.6683 16.3754 16.3974 16.405 16.1266 16.404C15.8558 16.403 15.585 16.3734 15.3142 16.3152C15.0434 16.2569 14.7861 16.1671 14.5424 16.0458L8.00239 12.8582V18.2665L16.1266 22.1347Z" fill="#E5811B"/>
</svg>
